<?xml version="1.0" encoding="utf-8"?>
<!-- Generator: Adobe Illustrator 27.8.1, SVG Export Plug-In . SVG Version: 6.00 Build 0)  -->
<svg version="1.1" id="Laag_1" xmlns="http://www.w3.org/2000/svg" xmlns:xlink="http://www.w3.org/1999/xlink" x="0px" y="0px"
	 viewBox="0 0 566.93 189.92" style="enable-background:new 0 0 566.93 189.92;" xml:space="preserve">
<style type="text/css">
	.st0{fill:#006940;}
	.st1{fill:#00B185;}
	.st2{fill:none;stroke:#006940;stroke-width:0.2706;}
	.st3{fill:none;}
</style>
<g>
	<g>
		<path class="st0" d="M188.38,98.45c8.21,22.96,8.02,41.99-2.42,49.86c-17.56,13.24-57.44-10.03-89.17-51.99l-28.5,0.5
			c5.12,9.4,11.23,18.92,18.29,28.28c36.42,48.29,83.97,73.85,106.2,57.09C209.8,169.34,207,135.36,188.38,98.45z"/>
		<path class="st1" d="M93.48,90.88c-8.21-22.97-8.02-41.99,2.43-49.86c17.56-13.24,57.44,10.03,89.17,51.99l28.5-0.5
			c-5.12-9.4-11.23-18.92-18.29-28.28C158.86,15.94,111.32-9.62,89.09,7.14C72.06,19.99,74.85,53.97,93.48,90.88z"/>
	</g>
	<path class="st1" d="M179.83,95.38c4.44,12.42,4.34,22.7-1.31,26.96c-9.49,7.16-31.06-5.42-48.21-28.11L114.9,94.5
		c2.77,5.08,6.07,10.23,9.89,15.29c19.69,26.11,45.4,39.93,57.42,30.86C191.41,133.71,189.9,115.34,179.83,95.38z"/>
	<g>
		<path class="st0" d="M248.21,56.02c0,3.9-2.45,6.58-6.97,7.28c4.87,0.44,7.28,2.67,7.28,6.93c0,5.87-3.9,8.24-11.92,8.24h-11.44
			c0.88-7.19,1.45-16.88,1.53-29.02h10.96C244.66,49.44,248.21,50.71,248.21,56.02z M236.37,73.38c3.95,0,5.87-1.23,5.87-4.03
			c0-2.5-1.58-3.73-4.87-3.73h-5.13l-0.13,2.72c-0.04,0.92-0.09,1.84-0.09,2.85c0,0.7,0.04,1.45,0.04,2.19H236.37z M235.76,60.89
			c4.12,0,6.18-1.23,6.18-3.95c0-2.15-1.32-2.85-4.3-2.85h-4.69c-0.13,1.8-0.17,2.85-0.17,3.2l-0.22,3.6H235.76z"/>
		<path class="st0" d="M260.44,55.49l-0.88,16.53c-0.04,0.61-0.04,1.32-0.04,2.19c0,1.14,0,2.59,0.04,4.25h-6.88
			c0.79-6.62,1.36-16.31,1.53-29.02h6.8C260.75,51.55,260.53,53.56,260.44,55.49z"/>
		<path class="st0" d="M265.48,64.57c0-9.73,6.22-15.74,16.48-15.74c10.65,0,16.48,5.26,16.48,14.55c0,9.69-6.22,15.7-16.48,15.7
			C271.36,79.08,265.48,73.82,265.48,64.57z M281.66,73.99c6.58,0,10.17-3.68,10.17-10.57c0-6.14-3.42-9.47-9.82-9.47
			c-6.4,0-9.95,3.73-9.95,10.57C272.06,70.53,275.61,73.99,281.66,73.99z"/>
		<path class="st0" d="M302.7,55.98c0-4.47,3.29-7.1,9.69-7.1c2.28,0,4.69,0.26,7.28,0.7l0.35,5.17c-2.41-0.83-4.43-1.36-6.27-1.36
			c-3.2,0-4.87,1.14-4.87,2.94c0,0.7,0.31,1.36,0.92,1.89l7.06,5.87c2.98,2.46,4.47,4.6,4.47,7.37c0,4.52-3.81,7.67-10.35,7.67
			c-3.81,0-6.93-0.7-8.64-1.58L302,71.93c3.55,1.62,6.49,2.37,8.55,2.37c2.98,0,4.69-1.14,4.69-2.89c0-0.79-0.57-1.75-1.67-2.67
			l-6.45-5.31C304.1,60.93,302.7,58.96,302.7,55.98z"/>
		<path class="st0" d="M325.59,69.44l0.39-4.91h10.43l-0.39,4.91H325.59z"/>
		<path class="st0" d="M349.65,78.9c-5.83,0-9.16-3.68-9.16-10.22c0-8.33,4.52-13.2,12.63-13.2c3.07,0,6.49,0.48,10.35,1.32
			c-0.83,14.86-0.61,23.59-1.18,26.17c-0.75,3.24-4.25,5.26-10,5.26c-2.63,0-5.87-0.48-9.78-1.45l-0.79-5.44
			c3.55,1.62,6.71,2.37,9.16,2.37c4.51,0,5.92-1.67,5.92-6.4c0-0.35-0.04-0.74-0.04-1.14C355.09,77.94,352.59,78.9,349.65,78.9z
			 M353.91,60.93c-4.6,0-7.28,2.72-7.28,7.5c0,3.55,1.84,5.61,4.87,5.61c3.64,0,5.74-2.32,5.87-6.71l0.18-5.87
			C356.54,61.11,355.31,60.93,353.91,60.93z"/>
		<path class="st0" d="M369.34,56.15h5.57v3.29c1.36-2.63,3.24-3.86,6.05-3.86c0.44,0,0.97,0,1.53,0.09l0.13,5.3
			c-0.88-0.13-1.62-0.18-2.19-0.18c-3.24,0-4.74,1.53-5.39,5c-0.31,1.71-0.53,5.92-0.61,12.67h-6.18
			C368.99,71.41,369.34,63.96,369.34,56.15z"/>
		<path class="st0" d="M396.61,55.54c7.19,0,11.27,4.08,11.27,11.18c0,7.8-4.52,12.36-12.14,12.36c-7.15,0-11.18-4.08-11.18-11.27
			C384.55,60.23,389.11,55.54,396.61,55.54z M390.69,67.77c0,4.3,1.8,6.49,5.31,6.49c3.81,0,5.7-2.41,5.7-7.37
			c0-4.34-1.71-6.49-5.22-6.49C392.66,60.4,390.69,62.86,390.69,67.77z"/>
		<path class="st0" d="M418.13,67.68c-0.04,0.57-0.04,0.92-0.04,1.05c0,3.38,2.15,5.26,6.14,5.26c2.15,0,4.12-0.44,6.05-1.36
			l-1.18,5.48c-2.5,0.61-4.69,0.96-6.53,0.96c-6.8,0-10.83-4.08-10.83-11.05c0-7.67,4.6-12.45,11.4-12.45c6.05,0,9.03,3.2,9.03,9.56
			c0,0.83-0.04,1.67-0.13,2.54H418.13z M426.29,63.82c0-2.54-1.32-3.9-3.59-3.9c-2.24,0-3.9,1.49-4.34,3.9H426.29z"/>
		<path class="st0" d="M437.07,57.03c3.46-1.01,6.8-1.49,9.95-1.49c8.15,0,12.23,3.77,12.23,11.14c0,7.45-4.65,12.41-10.92,12.41
			c-2.59,0-4.74-0.83-6.36-2.32l-0.26,4.78c-0.09,1.97-0.13,4.03-0.17,6.18h-6.23C436.24,82.11,436.76,71.89,437.07,57.03z
			 M442.42,66.72c0,4.95,1.4,7.28,5.09,7.28c3.46,0,5.57-2.54,5.57-7.15c0-4.3-1.97-6.44-6.01-6.44c-1.45,0-2.85,0.26-4.21,0.79
			C442.51,63.03,442.42,64.83,442.42,66.72z"/>
		<line class="st2" x1="225.73" y1="93.09" x2="458.97" y2="93.09"/>
	</g>
</g>
<rect class="st3" width="566.93" height="189.92"/>
</svg>
