<?xml version="1.0" encoding="utf-8"?>
<!-- Generator: Adobe Illustrator 27.8.1, SVG Export Plug-In . SVG Version: 6.00 Build 0)  -->
<svg version="1.1" id="Layer_1" xmlns="http://www.w3.org/2000/svg" xmlns:xlink="http://www.w3.org/1999/xlink" x="0px" y="0px"
	 viewBox="0 0 200 67" style="enable-background:new 0 0 200 67;" xml:space="preserve">
<style type="text/css">
	.st0{fill:#195B35;}
	.st1{fill:url(#SVGID_1_);}
	.st2{fill:#217946;}
	.st3{fill:#FFFFFF;}
</style>
<g>
	<path class="st0" d="M164.46,66.49H21.88c-1.27,0-2.24-0.72-2.04-1.51l2.49-9.92c0.16-0.63,1.02-1.1,2.04-1.1h142.58
		c1.27,0,2.24,0.72,2.04,1.51l-2.49,9.92C166.35,66.03,165.49,66.49,164.46,66.49z"/>
	
		<linearGradient id="SVGID_1_" gradientUnits="userSpaceOnUse" x1="150.6837" y1="51.9716" x2="180.9292" y2="51.9716" gradientTransform="matrix(1 0 0 -1 0 66)">
		<stop  offset="0.03" style="stop-color:#217946"/>
		<stop  offset="1" style="stop-color:#195B35"/>
	</linearGradient>
	<path class="st1" d="M157.55,18.03c-0.29-0.16-0.34-0.53-0.08-0.74c2.08-1.67,10.09-7.89,14.78-9.37
		c-0.19-0.31-20.79,6.41-19.46,18.73c0,0-0.74,1.74-1.89,0c-1.32-1.99,3.7-9.03,4.62-10.3c0.09-0.13,0.11-0.27,0.04-0.42
		c-0.56-1.26-2.96-7.7,4.96-11.42c0,0,2.51-1.56,9.6-1.14c4.42,0.26,7.5-1.33,9.21-2.56c0.66-0.48,1.62-0.04,1.6,0.72
		c-0.14,3.67-1.4,11.37-9.1,16.32C171.83,17.87,166.21,22.68,157.55,18.03L157.55,18.03z"/>
	<path class="st0" d="M53.39,1.66L52.84,4.3c-0.12,0.56-0.75,1.02-1.43,1.02H37.37c-0.4,0-0.79,0.27-0.85,0.61l-1.61,7.61
		c-0.07,0.34,0.19,0.61,0.6,0.61h8.6c0.13,0,0.26-0.09,0.28-0.21l0.37-1.78c0.02-0.11-0.06-0.21-0.2-0.21h-4.62
		c-0.4,0-0.67-0.27-0.6-0.61l0.67-3.17c0.07-0.34,0.45-0.61,0.86-0.61h10.06c0.66,0,1.12,0.46,1,1.02l-1.98,9.38
		c-0.12,0.56-0.76,1.02-1.43,1.02h-0.62l-14.97-0.03c-3.15,0-5.24-2.15-4.67-4.8l1.84-8.72c0.57-2.65,3.58-4.8,6.72-4.8H52.4
		C53.07,0.64,53.51,1.1,53.39,1.66z"/>
	<path class="st0" d="M54.24,18.99c-0.67,0-1.12-0.46-1-1.02l3.45-16.33c0.12-0.56,0.75-1.02,1.43-1.02h15.29
		c3.14,0,5.24,2.15,4.68,4.79l-0.88,4.17c-0.38,1.81-1.92,3.39-3.87,4.19c-0.14,0.06-0.21,0.19-0.15,0.29l2.52,3.76
		c0.33,0.51-0.08,1.11-0.76,1.11c-2.11,0-3.41,0.06-4.27,0.05c-1.47,0.02-1.95-0.03-2.22-0.49l-2.3-3.85
		c-0.1-0.17-0.3-0.27-0.54-0.27h-4.89c-0.13,0-0.26,0.1-0.28,0.21l-0.71,3.39c-0.12,0.56-0.75,1.02-1.43,1.02h-4.04L54.24,18.99z
		 M61.49,9.57c-0.02,0.11,0.06,0.21,0.2,0.21h7.91c0.59,0,1.16-0.41,1.27-0.91l0.58-2.75c0.11-0.5-0.29-0.91-0.88-0.91h-7.91
		c-0.13,0-0.26,0.09-0.28,0.2L61.49,9.57L61.49,9.57z"/>
	<path class="st0" d="M78.58,17.96l3.45-16.35c0.12-0.56,0.76-1.02,1.43-1.02h18.06c0.4,0,0.67,0.28,0.6,0.61l-0.73,3.46
		c-0.07,0.34-0.45,0.61-0.86,0.61H87.98c-0.13,0-0.26,0.09-0.28,0.21l-0.4,1.9C87.27,7.5,87.36,7.6,87.49,7.6h10.1
		c0.41,0,0.67,0.27,0.6,0.61l-0.67,3.18C97.44,11.72,97.06,12,96.65,12h-10.1c-0.13,0-0.26,0.09-0.28,0.21l-0.37,1.76
		c-0.02,0.11,0.06,0.21,0.2,0.21h12.55c0.41,0,0.67,0.27,0.6,0.61l-0.75,3.59c-0.07,0.33-0.45,0.61-0.86,0.61H79.58
		C78.91,18.99,78.46,18.53,78.58,17.96L78.58,17.96z"/>
	<path class="st0" d="M101.41,17.96l3.45-16.35c0.12-0.56,0.76-1.02,1.43-1.02h18.06c0.4,0,0.67,0.28,0.6,0.61l-0.73,3.46
		c-0.07,0.34-0.45,0.61-0.86,0.61h-12.56c-0.13,0-0.26,0.09-0.28,0.21l-0.4,1.9c-0.02,0.11,0.06,0.21,0.19,0.21h10.1
		c0.41,0,0.67,0.27,0.6,0.61l-0.67,3.18c-0.07,0.33-0.45,0.61-0.86,0.61h-10.1c-0.13,0-0.26,0.09-0.28,0.21l-0.37,1.76
		c-0.02,0.11,0.06,0.21,0.2,0.21h12.55c0.41,0,0.67,0.27,0.6,0.61l-0.75,3.59c-0.07,0.33-0.45,0.61-0.86,0.61h-18.06
		C101.74,18.99,101.29,18.53,101.41,17.96L101.41,17.96z"/>
	<path class="st0" d="M132.62,8.77l-1.94,9.19c-0.12,0.56-0.75,1.02-1.43,1.02h-4.01c-0.67,0-1.12-0.46-1-1.02l3.44-16.3
		c0.12-0.56,0.75-1.02,1.43-1.02h5.12c0.36,0,0.67,0.13,0.85,0.36l6.06,9.23c0.15,0.19,0.5,0.14,0.55-0.08l1.79-8.49
		c0.12-0.56,0.75-1.02,1.43-1.02h4.01c0.66,0,1.11,0.46,1,1.02l-3.44,16.3c-0.12,0.56-0.75,1.02-1.43,1.02h-4.44
		c-0.36,0-0.66-0.13-0.85-0.36l-6.6-9.94C133.01,8.49,132.66,8.55,132.62,8.77L132.62,8.77z"/>
	<path class="st2" d="M59,24.89l-0.83,3.9c-0.18,0.83-1.12,1.51-2.11,1.51h-8.73c-0.19,0-0.39,0.14-0.42,0.3L43.02,49
		c-0.18,0.83-1.12,1.51-2.11,1.51h-5.98c-0.99,0-1.65-0.67-1.47-1.51l3.88-18.4c0.04-0.17-0.1-0.3-0.29-0.3h-8.73
		c-0.99,0-1.65-0.67-1.47-1.51l0.82-3.9c0.18-0.83,1.12-1.51,2.11-1.51h27.75C58.53,23.39,59.18,24.06,59,24.89L59,24.89z"/>
	<path class="st2" d="M56.79,49l5.1-24.15c0.18-0.83,1.12-1.51,2.11-1.51h26.68c0.59,0,0.99,0.41,0.88,0.9l-1.08,5.12
		c-0.11,0.5-0.67,0.91-1.27,0.91H70.68c-0.19,0-0.39,0.14-0.42,0.31l-0.58,2.8c-0.03,0.17,0.1,0.31,0.29,0.31h14.91
		c0.59,0,0.99,0.4,0.88,0.9l-0.99,4.7c-0.11,0.5-0.67,0.9-1.27,0.9H68.59c-0.19,0-0.39,0.14-0.42,0.31l-0.55,2.61
		c-0.03,0.17,0.1,0.31,0.29,0.31h18.54c0.59,0,0.99,0.4,0.88,0.9l-1.12,5.31c-0.11,0.5-0.67,0.9-1.27,0.9H58.27
		c-0.99,0-1.65-0.67-1.48-1.51L56.79,49z"/>
	<path class="st2" d="M88.38,48.61l18.34-23.79c0.93-1.08,2.12-1.34,3.74-1.4v0.03c0,0,0.02,0,0.02,0v-0.02
		c0.45-0.01,0.92-0.01,1.44,0h0.24c0.19,0,0.35,0,0.54,0c0.67,0,1.39,0.01,2.23,0.01c0,0,1.57-0.04,2.16,1.39l9.06,23.79
		c0.15,0.4,0.05,0.87-0.26,1.26c-0.32,0.39-0.8,0.62-1.27,0.62h-7.23c-0.5,0-0.92-0.27-1.06-0.69l-0.81-2.24h-15.29l-0.62,0.81
		l-1.19,1.44c-0.35,0.42-0.92,0.69-1.48,0.69h-7.63c-0.54,0-0.98-0.24-1.18-0.62C87.94,49.5,88.03,49.02,88.38,48.61L88.38,48.61z
		 M105.19,41.1h8.02l-2.6-7.07L105.19,41.1L105.19,41.1z"/>
	<path class="st2" d="M142.96,23.4c0.7,0,1.26,0.34,1.44,0.87l5.41,16.78c0.11,0.32,0.61,0.39,0.81,0.12l13.16-16.89
		c0.41-0.53,1.11-0.87,1.81-0.87h6.93c0.99,0,1.65,0.67,1.47,1.51L168.89,49c-0.18,0.83-1.12,1.51-2.11,1.51h-5.39
		c-0.99,0-1.65-0.67-1.48-1.51l2.04-9.64l-8.02,10.27c-0.41,0.53-1.11,0.87-1.81,0.87h-7.14c-0.7,0-1.26-0.34-1.44-0.87l-3.7-10.22
		L137.81,49c-0.17,0.83-1.12,1.51-2.1,1.51h-5.39c-0.99,0-1.65-0.67-1.48-1.51l5.09-24.09c0.17-0.83,1.12-1.51,2.11-1.51H142.96z"/>
	<path class="st3" d="M36.22,58.12c-2.05,2.45-1.53,1.83-3.79,4.54c-0.09,0.11-0.25,0.19-0.39,0.19h-1.97
		c-0.14,0-0.24-0.08-0.24-0.19c0.01-2.83,0.01-2.11,0-4.54c0-0.11,0.14-0.22,0.28-0.22h1.33c0.14,0,0.24,0.08,0.24,0.18v3.08
		c0,0.06,0.1,0.08,0.15,0.02l2.59-3.1c0.09-0.11,0.24-0.19,0.38-0.19h1.33C36.26,57.89,36.31,58,36.22,58.12L36.22,58.12z"/>
	<path class="st3" d="M38.81,57.9h1.09c0.18,0,0.28,0.12,0.21,0.28l-1.34,3.21c-0.04,0.09,0.02,0.17,0.13,0.17h2.66
		c0.18,0,0.28,0.13,0.21,0.28l-0.31,0.75c-0.06,0.15-0.26,0.28-0.44,0.28h-4.27c-0.18,0-0.28-0.12-0.21-0.28l1.83-4.4
		C38.45,58.03,38.64,57.91,38.81,57.9L38.81,57.9z"/>
	<path class="st3" d="M51.38,59.17l-1,2.38c-0.3,0.72-1.22,1.29-2.08,1.29h-3.33c-0.85,0-1.3-0.58-1-1.29l1-2.38
		c0.3-0.72,1.22-1.29,2.08-1.29h3.33C51.24,57.88,51.68,58.45,51.38,59.17z M49.56,59.32c0.04-0.09-0.02-0.17-0.13-0.17h-2.51
		c-0.11,0-0.23,0.08-0.27,0.17l-0.86,2.06c-0.04,0.09,0.02,0.17,0.13,0.17h2.51c0.11,0,0.23-0.08,0.27-0.17L49.56,59.32z"/>
	<path class="st3" d="M52.46,62.57l1.84-4.41c0.06-0.15,0.26-0.28,0.45-0.28h4.87c0.11,0,0.16,0.08,0.13,0.17l-0.39,0.94
		c-0.04,0.09-0.15,0.17-0.27,0.17H55.7c0,0-0.07,0.03-0.09,0.06l-0.21,0.51c0,0,0,0.06,0.04,0.06h2.73c0.11,0,0.16,0.08,0.13,0.17
		l-0.36,0.85c-0.04,0.09-0.15,0.17-0.27,0.17h-2.73c0,0-0.07,0.03-0.09,0.06l-0.19,0.48c0,0,0,0.06,0.04,0.06h3.39
		c0.11,0,0.16,0.08,0.13,0.17l-0.41,0.97c-0.04,0.09-0.15,0.17-0.27,0.17h-4.87c-0.18,0-0.28-0.13-0.21-0.28L52.46,62.57z"/>
	<path class="st3" d="M60.27,62.57l1.84-4.41c0.06-0.15,0.26-0.27,0.44-0.27h4.13c0.85,0,1.3,0.58,1,1.29l-0.47,1.12
		c-0.2,0.49-0.71,0.92-1.27,1.13c-0.04,0.01-0.06,0.05-0.06,0.08l0.47,1.01c0.06,0.14-0.08,0.3-0.27,0.3
		c-0.57,0-0.92,0.01-1.15,0.01c-0.4,0-0.53-0.01-0.58-0.13l-0.41-1.04c-0.02-0.05-0.06-0.08-0.13-0.08h-1.32
		c0,0-0.07,0.03-0.09,0.06l-0.38,0.92c-0.06,0.15-0.26,0.28-0.44,0.28H60.5c-0.18,0-0.28-0.13-0.21-0.28L60.27,62.57z M62.96,60.31
		c0,0,0,0.06,0.04,0.06h2.13c0.16,0,0.33-0.11,0.39-0.24l0.31-0.74c0.06-0.14-0.02-0.24-0.19-0.24h-2.13c0,0-0.07,0.03-0.09,0.06
		L62.96,60.31L62.96,60.31z"/>
	<path class="st3" d="M68.76,62.57l1.84-4.41c0.06-0.15,0.26-0.28,0.45-0.28h4.87c0.11,0,0.16,0.08,0.13,0.17l-0.39,0.94
		c-0.04,0.09-0.15,0.17-0.27,0.17h-3.39c0,0-0.07,0.03-0.09,0.06l-0.21,0.51c0,0,0,0.06,0.04,0.06h2.73c0.11,0,0.16,0.08,0.13,0.17
		l-0.36,0.85c-0.04,0.09-0.15,0.17-0.27,0.17h-2.73c0,0-0.07,0.03-0.09,0.06l-0.19,0.48c0,0,0,0.06,0.04,0.06h3.39
		c0.11,0,0.16,0.08,0.13,0.17l-0.41,0.97c-0.04,0.09-0.15,0.17-0.27,0.17h-4.87c-0.18,0-0.28-0.13-0.21-0.28L68.76,62.57z"/>
	<path class="st3" d="M79.35,60.09l-1.04,2.48c-0.06,0.15-0.26,0.28-0.44,0.28h-1.09c-0.18,0-0.28-0.12-0.21-0.28l1.83-4.4
		c0.06-0.15,0.26-0.28,0.44-0.28h1.38c0.1,0,0.17,0.03,0.21,0.1l1.12,2.49c0.03,0.06,0.13,0.03,0.15-0.02l0.96-2.29
		c0.06-0.15,0.26-0.28,0.44-0.28h1.09c0.18,0,0.28,0.13,0.21,0.28l-1.83,4.4c-0.06,0.15-0.26,0.28-0.44,0.28h-1.2
		c-0.1,0-0.17-0.03-0.21-0.1l-1.23-2.68c-0.03-0.06-0.13-0.04-0.15,0.02L79.35,60.09z"/>
	<path class="st3" d="M97.35,59.95L97,60.8c-0.03,0.08-0.12,0.14-0.22,0.14h-0.64c0,0-0.01,0.05-0.02,0.08
		c-0.02,0.07-0.04,0.15-0.08,0.23l-0.07,0.18l-0.06,0.14c-0.02,0.06-0.05,0.12-0.08,0.17c-0.36,0.63-1.18,1.12-1.95,1.12H91.8
		c-0.7,0-1.12-0.41-1.05-0.97c0.02-0.1,0.04-0.21,0.09-0.32l0.07-0.18l0.05-0.12c0,0,0-0.01,0-0.02c0.03-0.08,0.06-0.15,0.11-0.22
		c0.04-0.08,0.08-0.15,0.14-0.23c0.04-0.06,0.09-0.11,0.14-0.17c0.19-0.22,0.38-0.32,0.45-0.36c-0.11-0.17-0.13-0.4-0.03-0.65
		c0-0.01,0.02-0.02,0.02-0.03l0.06-0.16l0.12-0.29c0.28-0.68,1.15-1.24,1.95-1.24h1.95c0.71,0,1.13,0.44,1,1.03
		c-0.02,0.11-0.15,0.2-0.28,0.2h-2.6c-0.16,0-0.33,0.11-0.39,0.25l-0.06,0.14c-0.06,0.14,0.02,0.24,0.19,0.24h3.49
		c0.12,0,0.19,0.09,0.15,0.19V59.95z M94.15,60.94h-1.04c-0.16,0-0.33,0.11-0.39,0.25l-0.06,0.13c-0.06,0.14,0.02,0.25,0.19,0.25
		h1.04c0.16,0,0.33-0.11,0.39-0.25l0.06-0.13C94.39,61.05,94.31,60.94,94.15,60.94z"/>
	<path class="st3" d="M111.11,58.17l-0.3,0.71c-0.06,0.15-0.26,0.28-0.44,0.28h-1.6c0,0-0.07,0.03-0.09,0.06l-1.4,3.36
		c-0.06,0.15-0.26,0.28-0.44,0.28h-1.09c-0.18,0-0.28-0.13-0.21-0.28l1.4-3.36c0,0,0-0.06-0.04-0.06h-1.6
		c-0.18,0-0.28-0.13-0.21-0.28l0.29-0.71c0.06-0.15,0.26-0.28,0.44-0.28h5.07C111.07,57.89,111.17,58.02,111.11,58.17L111.11,58.17z
		"/>
	<path class="st3" d="M111.46,62.57l1.84-4.41c0.06-0.15,0.26-0.27,0.44-0.27h4.13c0.85,0,1.3,0.58,1,1.29l-0.47,1.12
		c-0.2,0.49-0.71,0.92-1.27,1.13c-0.04,0.01-0.06,0.05-0.06,0.08l0.47,1.01c0.06,0.14-0.08,0.3-0.27,0.3
		c-0.57,0-0.92,0.01-1.15,0.01c-0.4,0-0.53-0.01-0.58-0.13l-0.41-1.04c-0.02-0.05-0.06-0.08-0.13-0.08h-1.32
		c0,0-0.07,0.03-0.09,0.06l-0.38,0.92c-0.06,0.15-0.26,0.28-0.44,0.28h-1.09c-0.18,0-0.28-0.13-0.21-0.28L111.46,62.57z
		 M114.15,60.31c0,0,0,0.06,0.04,0.06h2.13c0.16,0,0.33-0.11,0.39-0.24l0.31-0.74c0.06-0.14-0.02-0.24-0.19-0.24h-2.13
		c0,0-0.07,0.03-0.09,0.06L114.15,60.31L114.15,60.31z"/>
	<path class="st3" d="M119.57,62.5l4.24-4.35c0.21-0.19,0.44-0.24,0.74-0.26c0.08,0,0.17,0,0.27,0h0.04c0,0,0.06,0,0.1,0
		c0.12,0,0.25,0,0.41,0c0,0,0.29-0.01,0.34,0.25l0.76,4.35c0.02,0.07-0.02,0.16-0.1,0.23c-0.07,0.07-0.17,0.11-0.25,0.11h-1.32
		c-0.09,0-0.15-0.05-0.17-0.13l-0.06-0.41h-2.79l-0.15,0.15l-0.28,0.26c-0.08,0.08-0.19,0.13-0.3,0.13h-1.39
		c-0.1,0-0.17-0.04-0.19-0.11c-0.02-0.07,0.02-0.16,0.09-0.23L119.57,62.5z M122.92,61.13h1.47l-0.21-1.29L122.92,61.13z"/>
	<path class="st3" d="M135.54,60.31c-0.3,0.72-1.22,1.29-2.08,1.29h-2.64c0,0-0.07,0.03-0.09,0.06l-0.38,0.92
		c-0.06,0.15-0.26,0.28-0.44,0.28h-1.09c-0.18,0-0.28-0.13-0.21-0.28l1.83-4.4c0.06-0.15,0.26-0.28,0.44-0.28h4.12
		c0.85,0,1.3,0.58,1,1.29L135.54,60.31L135.54,60.31z M133.99,59.13h-2.13c0,0-0.07,0.03-0.09,0.06l-0.47,1.12c0,0,0,0.06,0.04,0.06
		h2.13c0.16,0,0.33-0.11,0.4-0.24l0.31-0.74C134.23,59.24,134.14,59.13,133.99,59.13z"/>
	<path class="st3" d="M143.89,60.31c-0.3,0.72-1.22,1.29-2.08,1.29h-2.64c0,0-0.07,0.03-0.09,0.06l-0.38,0.92
		c-0.06,0.15-0.26,0.28-0.44,0.28h-1.09c-0.18,0-0.28-0.13-0.21-0.28l1.83-4.4c0.06-0.15,0.26-0.28,0.44-0.28h4.12
		c0.85,0,1.3,0.58,1,1.29L143.89,60.31L143.89,60.31z M142.34,59.13h-2.13c0,0-0.07,0.03-0.09,0.06l-0.47,1.12c0,0,0,0.06,0.04,0.06
		h2.13c0.16,0,0.33-0.11,0.4-0.24l0.31-0.74C142.58,59.24,142.49,59.13,142.34,59.13z"/>
	<path class="st3" d="M145.31,62.57l1.84-4.41c0.06-0.15,0.26-0.28,0.45-0.28h4.87c0.11,0,0.16,0.08,0.13,0.17l-0.39,0.94
		c-0.04,0.09-0.15,0.17-0.27,0.17h-3.39c0,0-0.07,0.03-0.09,0.06l-0.21,0.51c0,0,0,0.06,0.04,0.06h2.73c0.11,0,0.16,0.08,0.13,0.17
		l-0.36,0.85c-0.04,0.09-0.15,0.17-0.27,0.17h-2.73c0,0-0.07,0.03-0.09,0.06l-0.19,0.48c0,0,0,0.06,0.04,0.06h3.39
		c0.1,0,0.16,0.08,0.13,0.17l-0.41,0.97c-0.04,0.09-0.15,0.17-0.27,0.17h-4.87c-0.18,0-0.28-0.13-0.21-0.28L145.31,62.57z"/>
	<path class="st3" d="M155.89,60.09l-1.04,2.48c-0.06,0.15-0.26,0.28-0.44,0.28h-1.09c-0.18,0-0.28-0.12-0.21-0.28l1.83-4.4
		c0.06-0.15,0.26-0.28,0.44-0.28h1.38c0.1,0,0.17,0.03,0.21,0.1l1.12,2.49c0.03,0.06,0.13,0.03,0.15-0.02l0.96-2.29
		c0.06-0.15,0.26-0.28,0.44-0.28h1.09c0.18,0,0.28,0.13,0.21,0.28l-1.83,4.4c-0.06,0.15-0.26,0.28-0.44,0.28h-1.2
		c-0.1,0-0.17-0.03-0.21-0.1l-1.23-2.68c-0.03-0.06-0.13-0.04-0.15,0.02L155.89,60.09z"/>
</g>
</svg>
