<?xml version="1.0" encoding="utf-8"?>
<!-- Generator: Adobe Illustrator 27.0.1, SVG Export Plug-In . SVG Version: 6.00 Build 0)  -->
<svg version="1.1" id="Laag_1" xmlns="http://www.w3.org/2000/svg" xmlns:xlink="http://www.w3.org/1999/xlink" x="0px" y="0px"
	 viewBox="0 0 450 450" style="enable-background:new 0 0 450 450;" xml:space="preserve">
<style type="text/css">
	.st0{fill:#FFFFFF;}
	
		.st1{opacity:0.1;fill:none;stroke:#8639FA;stroke-width:12;stroke-linecap:round;stroke-linejoin:round;enable-background:new    ;}
	
		.st2{opacity:0.1;fill:none;stroke:#8639FA;stroke-width:10;stroke-linecap:round;stroke-linejoin:round;enable-background:new    ;}
</style>
<rect x="0.1" y="-0.2" class="st0" width="449.9" height="450.1"/>
<path class="st1" d="M443.6,254.6l-0.7,60.9c0,2.3-2.4,3.8-4.5,2.9l-47.6-20.2c-2.1-0.9-4.5,0.7-4.5,3l1.2,53.8
	c0,2.3-2.3,3.9-4.4,3.1l-54.2-21.5"/>
<path class="st1" d="M35.4,6.3L94,23.1c2.2,0.6,3.1,3.3,1.6,5.1L63.5,68.7c-1.5,1.8-0.5,4.5,1.7,5.1l52.2,13.1
	c2.2,0.6,3.2,3.2,1.8,5.1L84,138.5"/>
<path class="st1" d="M237.2,128.4l46.9-7.5c1.8-0.3,3.2,1.3,2.8,3.1l-9.3,39.2c-0.4,1.8,1.1,3.4,2.9,3l41.2-8c1.8-0.3,3.3,1.2,2.9,3
	l-9.5,44.4"/>
<path class="st1" d="M75.1,253.1l11.9,46c0.4,1.7-1,3.4-2.8,3.1l-39.9-5.5c-1.8-0.2-3.3,1.4-2.8,3.2l11.8,40.2
	c0.5,1.7-0.9,3.4-2.7,3.2l-45.1-5.2"/>
<path class="st2" d="M185.6,251.3l29.5,2.1c1.1,0.1,1.8,1.3,1.3,2.2L205.2,278c-0.5,1,0.2,2.2,1.3,2.2l26.1,1c1.1,0,1.8,1.2,1.4,2.2
	l-12,25.6"/>
<path class="st2" d="M188.7,408l-1.4,19.1c-0.1,0.7-0.8,1.1-1.5,0.8l-14.6-7.2c-0.7-0.3-1.4,0.1-1.5,0.9l-0.6,16.9
	c0,0.7-0.8,1.2-1.4,0.9l-16.6-7.8"/>
<path class="st2" d="M397.9,79.4l-19.1,0.8c-0.7,0-1.2-0.7-1-1.4l5.6-15.3c0.2-0.7-0.3-1.4-1-1.3l-16.9,1.2c-0.7,0-1.3-0.7-1-1.3
	l5.9-17.4"/>
</svg>
